<?xml version="1.0" standalone="no"?>
<!DOCTYPE svg PUBLIC "-//W3C//DTD SVG 20010904//EN"
 "http://www.w3.org/TR/2001/REC-SVG-20010904/DTD/svg10.dtd">
<svg version="1.0" xmlns="http://www.w3.org/2000/svg"
 width="512.000000pt" height="512.000000pt" viewBox="0 0 512.000000 512.000000"
 preserveAspectRatio="xMidYMid meet">

<g transform="translate(0.000000,512.000000) scale(0.100000,-0.100000)"
fill="#000000" stroke="none">
<path d="M995 4423 c-163 -22 -322 -120 -414 -258 -89 -133 -95 -163 -99 -507
l-3 -298 368 0 368 0 528 528 c290 290 527 530 527 535 0 7 -1219 7 -1275 0z"/>
<path d="M2710 4418 c0 -7 -235 -247 -522 -535 l-523 -523 520 0 520 0 535
535 535 535 -533 0 c-409 0 -532 -3 -532 -12z"/>
<path d="M3675 3883 l-520 -523 743 0 742 0 0 268 c0 352 -17 427 -123 567
-67 89 -213 188 -302 206 -15 3 -140 -117 -540 -518z"/>
<path d="M482 2103 l3 -938 23 -67 c12 -37 45 -101 73 -143 78 -116 190 -197
335 -242 56 -17 135 -18 1644 -18 1511 0 1588 1 1645 18 194 60 335 192 403
378 l27 74 3 938 3 937 -2081 0 -2080 0 2 -937z"/>
</g>
</svg>
